<?xml version="1.0" encoding="UTF-8" standalone="no"?>
<!-- Created with Inkscape (http://www.inkscape.org/) -->

<svg
   xmlns:dc="http://purl.org/dc/elements/1.1/"
   xmlns:cc="http://creativecommons.org/ns#"
   xmlns:rdf="http://www.w3.org/1999/02/22-rdf-syntax-ns#"
   xmlns:svg="http://www.w3.org/2000/svg"
   xmlns="http://www.w3.org/2000/svg"
   xmlns:sodipodi="http://sodipodi.sourceforge.net/DTD/sodipodi-0.dtd"
   xmlns:inkscape="http://www.inkscape.org/namespaces/inkscape"
   width="500"
   height="500"
   id="svg2"
   version="1.1"
   inkscape:version="0.48.5 r10040"
   sodipodi:docname="Blight-logo.svg"
   inkscape:export-filename="/mnt/Tokyo/ownCloud/web media/Blight-logo-512px.png"
   inkscape:export-xdpi="92.160004"
   inkscape:export-ydpi="92.160004">
  <title
     id="title4758">Blight Logo</title>
  <defs
     id="defs4" />
  <sodipodi:namedview
     id="base"
     pagecolor="#ffffff"
     bordercolor="#666666"
     borderopacity="1.0"
     inkscape:pageopacity="0.0"
     inkscape:pageshadow="2"
     inkscape:zoom="0.98994949"
     inkscape:cx="-8.0335094"
     inkscape:cy="264.38663"
     inkscape:document-units="px"
     inkscape:current-layer="g3107"
     showgrid="false"
     inkscape:window-width="1920"
     inkscape:window-height="1015"
     inkscape:window-x="0"
     inkscape:window-y="27"
     inkscape:window-maximized="1" />
  <metadata
     id="metadata7">
    <rdf:RDF>
      <cc:Work
         rdf:about="">
        <dc:format>image/svg+xml</dc:format>
        <dc:type
           rdf:resource="http://purl.org/dc/dcmitype/StillImage" />
        <dc:title>Blight Logo</dc:title>
        <dc:date>2014-12-14</dc:date>
        <dc:creator>
          <cc:Agent>
            <dc:title>Andrew Toskin</dc:title>
          </cc:Agent>
        </dc:creator>
        <dc:subject>
          <rdf:Bag>
            <rdf:li>blight</rdf:li>
            <rdf:li>tox</rdf:li>
            <rdf:li>chat client</rdf:li>
            <rdf:li>logo</rdf:li>
          </rdf:Bag>
        </dc:subject>
        <cc:license
           rdf:resource="http://creativecommons.org/licenses/by-sa/3.0/" />
      </cc:Work>
      <cc:License
         rdf:about="http://creativecommons.org/licenses/by-sa/3.0/">
        <cc:permits
           rdf:resource="http://creativecommons.org/ns#Reproduction" />
        <cc:permits
           rdf:resource="http://creativecommons.org/ns#Distribution" />
        <cc:requires
           rdf:resource="http://creativecommons.org/ns#Notice" />
        <cc:requires
           rdf:resource="http://creativecommons.org/ns#Attribution" />
        <cc:permits
           rdf:resource="http://creativecommons.org/ns#DerivativeWorks" />
        <cc:requires
           rdf:resource="http://creativecommons.org/ns#ShareAlike" />
      </cc:License>
    </rdf:RDF>
  </metadata>
  <g
     inkscape:label="Layer 1"
     inkscape:groupmode="layer"
     id="layer1"
     transform="translate(0,-552.36218)">
    <g
       id="g3107"
       transform="translate(-160.76206,-78.64832)">
      <g
         id="g4760"
         transform="translate(-42.800048,-1.5273424)">
        <path
           inkscape:connector-curvature="0"
           id="path4656"
           d="m 422.8174,669.48635 -65.77438,71.4939 47.90091,133.69359 131.54878,2.85976 24.30792,-142.27287 -101.52134,-72.20884 z"
           style="fill:#ffffff;fill-opacity:1;stroke:none" />
        <path
           sodipodi:nodetypes="ssssscssssssscssssssscsssssssssscsscc"
           inkscape:connector-curvature="0"
           id="path3109"
           d="m 269.22868,1120.3949 c -2.33074,-1.0792 -5.52343,-3.3332 -7.09489,-5.009 -6.51373,-6.9464 -6.14787,1.4307 -6.14787,-140.77153 0,-142.20445 -0.36377,-133.87726 6.14787,-140.73252 6.08502,-6.40615 6.50335,-6.48005 39.93688,-7.0565 l 30.72316,-0.52971 0.67056,-40.78765 c 0.58888,-35.81966 0.93286,-41.8927 2.82414,-49.86027 9.622,-40.53566 37.97167,-72.77684 75.91833,-86.33949 15.0054,-5.36315 27.6483,-7.1584 45.59846,-6.47483 30.40498,1.15786 55.29048,11.53709 76.69706,31.98883 17.52835,16.74648 27.44324,33.64153 34.1809,58.2445 2.14868,7.84599 2.36626,11.62217 2.93019,50.85214 l 0.60915,42.37677 31.78258,0.52971 c 34.60179,0.5767 34.88805,0.62598 40.99629,7.0565 6.51334,6.85709 6.15006,-1.50434 6.12454,140.96334 -0.0221,124.35211 -0.1096,130.26421 -1.98521,134.31541 -2.40421,5.1929 -6.77159,9.4157 -11.99471,11.5975 -3.50926,1.4658 -23.55624,1.6427 -183.80929,1.622 -172.81812,-0.023 -180.03663,-0.1006 -184.10814,-1.9852 z M 471.83261,862.96339 c 27.05628,-21.76328 50.32004,-53.45499 58.18839,-79.26878 2.44836,-8.03237 2.8493,-11.27392 2.92053,-23.61268 0.0907,-15.70556 -0.8144,-19.73526 -7.38833,-32.89531 -9.80547,-19.62905 -29.68081,-34.76189 -52.916,-40.28957 -12.54514,-2.98451 -32.06074,-2.46916 -43.4362,1.14701 -24.39792,7.75592 -44.29784,25.64629 -51.46994,46.27237 -3.24829,9.3417 -4.26267,15.76433 -4.23664,26.82491 0.0285,12.09451 1.90007,19.95181 7.44444,31.25288 9.15195,18.65439 25.79418,32.38487 48.26214,39.81814 6.473,2.14152 9.63857,2.46683 24.89635,2.55843 l 17.48043,0.10499 -0.30816,3.12588 c -0.4791,4.85988 -4.39687,16.17726 -8.31613,24.02298 -6.00903,12.02913 -5.03633,12.13197 8.87912,0.9388 z"
           style="fill:#dc0000;fill-opacity:1" />
        <path
           inkscape:connector-curvature="0"
           id="path4710"
           d="m 451.30772,642.69401 c -14.65029,-0.0409 -25.96849,1.92267 -39.09822,6.61542 -26.40256,9.43663 -48.16246,27.91421 -62.19746,51.93808 l 23.52149,62.58845 c -0.0244,-0.87673 -0.0447,-1.76733 -0.0469,-2.68996 -0.0261,-11.06059 0.98995,-17.49533 4.23825,-26.83703 7.1721,-20.62608 27.07099,-38.5051 51.46891,-46.26102 11.37546,-3.61617 30.90081,-4.14181 43.44594,-1.15731 23.23519,5.52769 43.10227,20.67341 52.90772,40.30245 6.57395,13.16006 7.48807,17.18387 7.39738,32.88944 -0.0712,12.33876 -0.47618,15.58295 -2.92454,23.61532 -7.86837,25.8138 -31.13754,57.49666 -58.19383,79.25993 -13.91544,11.19318 -14.8765,11.09077 -8.86747,-0.93836 3.91926,-7.84573 7.82536,-19.16207 8.30445,-24.02195 l 0.3128,-3.12786 -17.48473,-0.0939 c -15.25779,-0.0916 -18.42475,-0.42333 -24.89775,-2.56485 -16.87497,-5.58289 -30.45513,-14.71578 -40.05222,-26.82138 l 119.12447,316.99282 c 110.05804,-0.042 125.82486,-0.3489 128.88339,-1.6265 5.22312,-2.1818 9.59114,-6.3958 11.99534,-11.5887 1.87562,-4.0511 1.96417,-9.9737 1.98619,-134.32591 0.0256,-142.46768 0.38275,-134.09984 -6.1306,-140.95692 -6.10824,-6.43052 -6.3888,-6.47662 -40.99058,-7.05333 l -31.79468,-0.53172 -0.5943,-42.38249 c -0.56393,-39.22996 -0.7915,-42.99734 -2.94018,-50.84333 -6.73766,-24.60297 -16.6435,-41.50987 -34.17186,-58.25636 -21.40657,-20.45174 -46.30573,-30.82449 -76.71071,-31.98235 -2.24377,-0.0855 -4.39741,-0.1349 -6.49031,-0.14076 z"
           style="fill:#060e82;fill-opacity:1" />
        <text
           sodipodi:linespacing="125%"
           id="text3113"
           y="1086.2734"
           x="382.41571"
           style="font-size:240.43403625px;font-style:normal;font-variant:normal;font-weight:normal;font-stretch:normal;line-height:125%;letter-spacing:0px;word-spacing:0px;fill:#000000;fill-opacity:1;stroke:none;font-family:Crimson Text;-inkscape-font-specification:Crimson Text"
           xml:space="preserve"><tspan
             style="font-style:normal;font-variant:normal;font-weight:normal;font-stretch:normal;fill:#ffffff;fill-opacity:1;font-family:Source Sans Pro;-inkscape-font-specification:Source Sans Pro"
             y="1086.2734"
             x="382.41571"
             id="tspan3115"
             sodipodi:role="line">λ</tspan></text>
      </g>
    </g>
  </g>
</svg>
